<?xml version="1.0" encoding="utf-8"?>
<!-- Generator: Adobe Illustrator 18.0.0, SVG Export Plug-In . SVG Version: 6.00 Build 0)  -->
<!DOCTYPE svg PUBLIC "-//W3C//DTD SVG 1.1//EN" "http://www.w3.org/Graphics/SVG/1.1/DTD/svg11.dtd">
<svg version="1.1" id="Layer_1" xmlns="http://www.w3.org/2000/svg" xmlns:xlink="http://www.w3.org/1999/xlink" x="0px" y="0px"
	 viewBox="0 0 7.2 7.7" enable-background="new 0 0 7.2 7.7" xml:space="preserve">
<path fill-rule="evenodd" clip-rule="evenodd" fill="#fff" d="M7,4.8C7.1,4.9,7.2,5,7.2,5.1c0,0.1,0,0.2,0,0.4L6.8,6.1
	C6.7,6.2,6.6,6.3,6.5,6.3c-0.1,0-0.3,0-0.4,0l-1.7-1v1.9c0,0.1,0,0.3-0.1,0.3C4.2,7.6,4.1,7.7,4,7.7H3.2c-0.1,0-0.3,0-0.3-0.1
	C2.8,7.5,2.8,7.3,2.8,7.2V5.3l-1.7,1C1,6.3,0.8,6.3,0.7,6.3c-0.1,0-0.2-0.1-0.3-0.2L0.1,5.4C0,5.3,0,5.2,0,5.1
	c0-0.1,0.1-0.2,0.2-0.3l1.7-1l-1.7-1C0.1,2.8,0.1,2.7,0,2.6c0-0.1,0-0.2,0.1-0.4l0.4-0.6c0.1-0.1,0.2-0.2,0.3-0.2c0.1,0,0.3,0,0.4,0
	l1.7,1V0.5c0-0.1,0-0.2,0.1-0.3C3,0,3.1,0,3.2,0H4c0.1,0,0.3,0,0.3,0.1c0.1,0.1,0.1,0.2,0.1,0.3v1.9l1.7-1c0.1-0.1,0.2-0.1,0.4,0
	c0.1,0,0.2,0.1,0.3,0.2l0.4,0.6c0.1,0.1,0.1,0.2,0.1,0.4c0,0.1-0.1,0.2-0.2,0.3l-1.7,1L7,4.8L7,4.8z"/>
</svg>
