<?xml version="1.0" encoding="utf-8"?>
<!-- Generator: Adobe Illustrator 18.0.0, SVG Export Plug-In . SVG Version: 6.00 Build 0)  -->
<!DOCTYPE svg PUBLIC "-//W3C//DTD SVG 1.1//EN" "http://www.w3.org/Graphics/SVG/1.1/DTD/svg11.dtd">
<svg version="1.1" id="Layer_1" xmlns="http://www.w3.org/2000/svg" xmlns:xlink="http://www.w3.org/1999/xlink" x="0px" y="0px"
	 viewBox="0 0 8.2 7" enable-background="new 0 0 8.2 7" xml:space="preserve">
<path fill-rule="evenodd" clip-rule="evenodd" fill="#fff" d="M8.2,3.6c0,0.7-0.1,1.2-0.3,1.7C7.7,5.7,7.4,6,7,6.3
	C6.7,6.5,6.2,6.7,5.7,6.8C5.2,6.9,4.7,7,4.1,7c-0.6,0-1.2,0-1.7-0.1C1.9,6.7,1.5,6.5,1.1,6.3C0.8,6,0.5,5.7,0.3,5.3
	C0.1,4.8,0,4.3,0,3.6c0-0.3,0.1-0.7,0.2-1C0.3,2.3,0.4,2,0.7,1.8l0,0l0,0c0-0.1-0.1-0.2-0.1-0.4c0-0.1,0-0.2,0-0.4
	c0-0.1,0-0.2,0-0.2c0-0.1,0-0.2,0-0.3c0-0.1,0-0.2,0.1-0.3c0-0.1,0.1-0.2,0.1-0.2h0C1,0,1.1,0,1.3,0.1c0.1,0,0.3,0.1,0.4,0.2
	C1.8,0.3,2,0.3,2.1,0.4c0.1,0.1,0.3,0.2,0.4,0.3C2.7,0.6,3,0.6,3.3,0.6c0.3,0,0.5,0,0.8,0c0.3,0,0.5,0,0.8,0c0.3,0,0.5,0.1,0.8,0.1
	C5.8,0.6,6,0.5,6.1,0.4c0.1-0.1,0.3-0.2,0.4-0.2c0.1-0.1,0.3-0.1,0.4-0.2C7,0,7.2,0,7.4,0h0c0,0.1,0.1,0.1,0.1,0.2
	c0,0.1,0.1,0.2,0.1,0.3c0,0.1,0,0.2,0,0.3c0,0.1,0,0.2,0,0.2c0,0.1,0,0.2,0,0.4c0,0.1,0,0.2-0.1,0.4v0l0,0C7.7,2,7.9,2.3,8,2.6
	C8.1,2.9,8.2,3.3,8.2,3.6z M5.5,3.2c-0.2,0-0.5,0-0.7,0c-0.2,0-0.5,0-0.7,0c-0.2,0-0.5,0-0.7,0c-0.2,0-0.5,0-0.7,0
	c-0.5,0-0.9,0.1-1.2,0.4C1.3,3.9,1.1,4.2,1.1,4.7c0,0.4,0.1,0.7,0.3,1c0.2,0.2,0.4,0.4,0.7,0.5c0.3,0.1,0.6,0.2,1,0.2
	c0.3,0,0.7,0,1,0c0.2,0,0.4,0,0.7,0c0.2,0,0.5,0,0.7-0.1c0.2,0,0.4-0.1,0.6-0.1C6.3,6.1,6.4,6,6.6,5.9c0.1-0.1,0.3-0.3,0.4-0.5
	C7,5.2,7.1,5,7.1,4.7c0-0.2,0-0.5-0.1-0.6C6.9,3.9,6.8,3.7,6.6,3.6C6.5,3.5,6.3,3.4,6.1,3.3C5.9,3.3,5.7,3.2,5.5,3.2z M2.2,4.5
	c0-0.2,0-0.4,0.1-0.5c0.1-0.1,0.2-0.2,0.3-0.2c0.1,0,0.2,0.1,0.3,0.2C3,4.2,3,4.4,3,4.5C3,4.7,3,4.9,2.9,5C2.8,5.2,2.7,5.2,2.6,5.2
	C2.5,5.2,2.4,5.2,2.3,5C2.2,4.9,2.2,4.7,2.2,4.5z M4.1,6.2C4,6.2,3.8,6.1,3.7,6C3.6,5.9,3.6,5.8,3.5,5.7c0,0,0-0.1,0.1-0.1
	c0,0,0.1,0,0.1,0.1C3.8,5.9,3.9,6,4.1,6c0.1,0,0.2,0,0.2-0.1c0.1-0.1,0.1-0.1,0.2-0.2c0-0.1,0.1-0.1,0.1-0.1c0,0,0.1,0.1,0.1,0.1
	c0,0.1-0.1,0.2-0.2,0.3C4.3,6.1,4.2,6.2,4.1,6.2z M4.3,5.2C4.3,5.2,4.3,5.2,4.3,5.2C4.2,5.1,4.2,5.1,4.1,5.1c-0.1,0-0.1,0-0.2,0
	c-0.1,0-0.1,0.1-0.1,0.1c0,0,0,0.1,0.1,0.1c0.1,0,0.1,0,0.2,0C4.2,5.4,4.2,5.3,4.3,5.2C4.3,5.3,4.3,5.3,4.3,5.2z M6,4.5
	c0-0.2,0-0.4-0.1-0.5C5.8,3.9,5.7,3.8,5.6,3.8c-0.1,0-0.2,0.1-0.3,0.2C5.2,4.2,5.2,4.4,5.2,4.5c0,0.2,0,0.4,0.1,0.5
	c0.1,0.1,0.2,0.2,0.3,0.2c0.1,0,0.2-0.1,0.3-0.2C5.9,4.9,6,4.7,6,4.5z"/>
</svg>
