<?xml version="1.0" encoding="utf-8"?>
<!-- Generator: Adobe Illustrator 18.0.0, SVG Export Plug-In . SVG Version: 6.00 Build 0)  -->
<!DOCTYPE svg PUBLIC "-//W3C//DTD SVG 1.1//EN" "http://www.w3.org/Graphics/SVG/1.1/DTD/svg11.dtd">
<svg version="1.1" id="Layer_1" xmlns="http://www.w3.org/2000/svg" xmlns:xlink="http://www.w3.org/1999/xlink" x="0px" y="0px"
	 viewBox="0 0 108.6 108.6" enable-background="new 0 0 108.6 108.6" xml:space="preserve">
<g>
	<defs>
		<rect id="SVGID_1_" width="108.6" height="108.6"/>
	</defs>
	<clipPath id="SVGID_2_">
		<use xlink:href="#SVGID_1_"  overflow="visible"/>
	</clipPath>
	<path clip-path="url(#SVGID_2_)" fill="#fff" d="M54.3,0C24.3,0,0,24.3,0,54.3c0,28.4,21.8,51.7,49.5,54.1v0.2h10.4V84.5
		c15.7-1.5,30.8-12.6,30.8-33.9c0-19-13.1-30.6-25.3-30.7c-8.5-0.1-15.9,5.4-15.9,18.7v37.6C36,74.2,29.4,63.9,29.4,51.5
		c0-13.4,7.8-21.7,14.5-25.9l-4.4-6.3c-8.6,3.6-21.3,14.5-21.3,32.5c0,22.1,15.9,31.6,31.3,32.7v15.2C26.6,97.3,8.6,77.9,8.6,54.3
		c0-25.2,20.5-45.7,45.7-45.7c25.2,0,45.7,20.5,45.7,45.7c0,21.4-14.8,39.4-34.7,44.3v8.9c24.7-5.1,43.3-27,43.3-53.2
		C108.6,24.3,84.3,0,54.3,0 M59.9,36.8c0-5.9,2.2-8.7,5.4-8.7c7.2,0,14.6,10,14.6,22.6c0,14.5-7.8,24-20,25.7V36.8z"/>
</g>
</svg>
