<?xml version="1.0" encoding="utf-8"?>
<!-- Generator: Adobe Illustrator 18.0.0, SVG Export Plug-In . SVG Version: 6.00 Build 0)  -->
<!DOCTYPE svg PUBLIC "-//W3C//DTD SVG 1.1//EN" "http://www.w3.org/Graphics/SVG/1.1/DTD/svg11.dtd">
<svg version="1.1" id="Layer_1" xmlns="http://www.w3.org/2000/svg" xmlns:xlink="http://www.w3.org/1999/xlink" x="0px" y="0px"
	 viewBox="0 0 8.5 8.5" enable-background="new 0 0 8.5 8.5" xml:space="preserve">
<path fill-rule="evenodd" clip-rule="evenodd" fill="#fff" d="M8.1,1.8L7.4,2.6L5.8,1.1l0.8-0.8c0.4-0.4,1.1-0.4,1.5,0
	C8.6,0.7,8.6,1.4,8.1,1.8z M6.9,3.1L3.6,6.3L1.6,6.9l0.6-2.1l3.2-3.2L6.9,3.1z"/>
<path fill-rule="evenodd" clip-rule="evenodd" fill="#fff" d="M8.1,1.8L7.4,2.6L5.8,1.1l0.8-0.8c0.4-0.4,1.1-0.4,1.5,0
	C8.6,0.7,8.6,1.4,8.1,1.8z M6.9,3.1L3.6,6.3L1.6,6.9l0.6-2.1l3.2-3.2L6.9,3.1z"/>
<path fill-rule="evenodd" clip-rule="evenodd" fill="#fff" d="M7.4,4v2.8c0,0.3-0.2,0.5-0.5,0.5H1.6c-0.3,0-0.5-0.2-0.5-0.5V1.6
	c0-0.3,0.2-0.5,0.5-0.5h2.8L5.5,0H1.6C0.7,0,0,0.7,0,1.6v5.3c0,0.9,0.7,1.6,1.6,1.6h5.3c0.9,0,1.6-0.7,1.6-1.6V3L7.4,4z"/>
</svg>
