<?xml version="1.0" encoding="utf-8"?>
<!-- Generator: Adobe Illustrator 18.0.0, SVG Export Plug-In . SVG Version: 6.00 Build 0)  -->
<!DOCTYPE svg PUBLIC "-//W3C//DTD SVG 1.1//EN" "http://www.w3.org/Graphics/SVG/1.1/DTD/svg11.dtd">
<svg version="1.1" id="Layer_1" xmlns="http://www.w3.org/2000/svg" xmlns:xlink="http://www.w3.org/1999/xlink" x="0px" y="0px"
	 viewBox="0 0 7.2 7.2" enable-background="new 0 0 7.2 7.2" xml:space="preserve">
<path fill-rule="evenodd" clip-rule="evenodd" fill="#fff" d="M0.9,0C1,0,1.1,0,1.2,0.1c0.1,0,0.2,0.1,0.3,0.2
	c0.1,0.1,0.1,0.2,0.2,0.3c0,0.1,0.1,0.2,0.1,0.3c0,0.1,0,0.2-0.1,0.3c0,0.1-0.1,0.2-0.2,0.3C1.4,1.6,1.3,1.6,1.2,1.7
	C1.1,1.7,1,1.8,0.9,1.8c-0.1,0-0.2,0-0.3-0.1c-0.1,0-0.2-0.1-0.3-0.2C0.2,1.4,0.1,1.3,0.1,1.2C0,1.1,0,1,0,0.9c0-0.1,0-0.2,0.1-0.3
	c0-0.1,0.1-0.2,0.2-0.3c0.1-0.1,0.2-0.1,0.3-0.2C0.6,0,0.7,0,0.9,0z M1.5,2.3c0,0,0.1,0,0.1,0.1c0,0,0.1,0.1,0.1,0.1V7
	c0,0,0,0.1-0.1,0.1c0,0-0.1,0.1-0.1,0.1H0.2c0,0-0.1,0-0.1-0.1C0.1,7.1,0,7.1,0,7V2.5c0,0,0-0.1,0.1-0.1c0,0,0.1-0.1,0.1-0.1H1.5
	L1.5,2.3z M5.3,2.2c0.6,0,1,0.1,1.4,0.4C7,2.9,7.2,3.3,7.2,3.9V7c0,0,0,0.1-0.1,0.1c0,0-0.1,0.1-0.1,0.1H5.7c0,0-0.1,0-0.1-0.1
	c0,0-0.1-0.1-0.1-0.1V4.2c0-0.2,0-0.4-0.1-0.5C5.3,3.6,5.1,3.5,4.9,3.5c-0.2,0-0.3,0-0.4,0.1C4.4,3.7,4.3,3.7,4.2,3.8
	C4.2,3.9,4.1,4,4.1,4.1c0,0.1,0,0.3,0,0.4V7c0,0,0,0.1-0.1,0.1c0,0-0.1,0.1-0.1,0.1H2.6c0,0-0.1,0-0.1-0.1c0,0-0.1-0.1-0.1-0.1V2.5
	c0,0,0-0.1,0.1-0.1c0,0,0.1-0.1,0.1-0.1h1.2c0.1,0,0.2,0,0.2,0.1c0,0.1,0,0.2,0,0.2c0.2-0.2,0.4-0.3,0.6-0.3
	C4.8,2.2,5.1,2.2,5.3,2.2z"/>
</svg>
