<?xml version="1.0" encoding="utf-8"?>
<!-- Generator: Adobe Illustrator 18.0.0, SVG Export Plug-In . SVG Version: 6.00 Build 0)  -->
<!DOCTYPE svg PUBLIC "-//W3C//DTD SVG 1.1//EN" "http://www.w3.org/Graphics/SVG/1.1/DTD/svg11.dtd">
<svg version="1.1" id="Layer_1" xmlns="http://www.w3.org/2000/svg" xmlns:xlink="http://www.w3.org/1999/xlink" x="0px" y="0px"
	 viewBox="0 0 8.6 6" enable-background="new 0 0 8.6 6" xml:space="preserve">
<path fill-rule="evenodd" clip-rule="evenodd" fill="#fff" d="M8.4,2.6c0.1,0,0.1,0,0.2,0c0.1,0,0.1,0.1,0.1,0.2
	c0,0.1,0,0.2-0.1,0.2C8.4,3.1,8.3,3.1,8.2,3.2C8.1,3.2,8,3.3,7.9,3.3c-0.1,0-0.2,0-0.3,0.1C7.5,3.8,7.3,4.2,7,4.5
	C6.7,4.8,6.4,5.1,6,5.3C5.6,5.5,5.2,5.7,4.8,5.8C4.4,5.9,3.9,6,3.5,6C2.8,6,2.2,5.9,1.6,5.6C0.9,5.3,0.4,4.9,0,4.3c0,0,0-0.1,0-0.1
	C0,4.1,0,4.1,0.1,4C0.1,4,0.2,4,0.2,4c0,0,0.1,0,0.1,0.1c0.4,0.3,0.8,0.5,1.3,0.5c0.2,0,0.4,0,0.6-0.1c0.2,0,0.3-0.1,0.5-0.2
	C2.7,4.2,2.6,4.1,2.5,4C2.5,4,2.5,3.9,2.5,3.8c0-0.1,0-0.1,0-0.2c-0.1,0-0.1,0-0.2-0.1C2.2,3.4,2.1,3.4,2,3.3C2,3.3,1.9,3.2,1.9,3.1
	C1.8,3.1,1.8,3,1.8,2.9c0,0,0-0.1,0-0.1c0,0,0.1-0.1,0.1-0.1C1.8,2.6,1.7,2.5,1.6,2.3C1.5,2.2,1.4,2,1.4,1.9c0-0.1,0.1-0.2,0.2-0.2
	C1.5,1.6,1.4,1.5,1.3,1.3C1.3,1.2,1.2,1,1.2,0.9c0-0.1,0-0.1,0-0.2c0-0.1,0.1-0.1,0.2-0.1c0.1,0,0.2,0,0.4,0.1C2,0.8,2.3,0.9,2.5,1
	C2.7,1.1,3,1.2,3.2,1.3c0.2,0.1,0.4,0.2,0.5,0.2c0.1,0,0.2,0.1,0.2,0.1C3.9,1.7,4,1.8,4.1,1.9c0.1-0.2,0.1-0.3,0.2-0.5
	C4.4,1.2,4.5,1,4.6,0.9c0.1-0.2,0.2-0.3,0.3-0.4C5,0.3,5.2,0.2,5.3,0.1c0,0,0.1,0,0.1,0c0.1,0,0.1,0,0.1,0c0,0,0.1,0,0.2-0.1
	C5.9,0,5.9,0,6,0c0.1,0,0.2,0,0.2,0.1c0.1,0,0.2,0,0.3,0.1c0.1,0,0.1,0.1,0.1,0.2c0,0.1,0,0.2-0.1,0.2C6.7,0.8,7,1,7.2,1.3
	c0.2,0.3,0.3,0.5,0.4,0.8c0,0,0.1,0,0.1,0c0.1,0,0.3,0,0.4-0.1C8.3,2,8.3,1.9,8.4,1.9c0.1,0,0.1,0,0.1,0.1c0,0,0.1,0.1,0.1,0.2
	c0,0.1,0,0.1-0.1,0.2C8.4,2.5,8.4,2.5,8.4,2.6z"/>
</svg>
